<svg version="1.2" xmlns="http://www.w3.org/2000/svg" viewBox="0 0 172 172" width="200" height="200">
	<title>mlb_logo-svg</title>
	<style>
		.s0 { fill: #ffffff } 
		.s1 { fill: #bf0d3e } 
		.s2 { fill: #041e42 } 
	</style>
	<path id="Layer" class="s0" d="m157.4 39h-143.1q-1.4 0-2.8 0.3-1.4 0.2-2.7 0.8-1.3 0.5-2.4 1.3-1.2 0.7-2.2 1.7-1 1-1.8 2.2-0.8 1.2-1.3 2.5-0.6 1.3-0.8 2.7-0.3 1.4-0.3 2.8v63.9q0 1.4 0.3 2.8 0.2 1.4 0.8 2.7 0.5 1.3 1.3 2.5 0.8 1.2 1.8 2.2 1 1 2.1 1.8 1.2 0.7 2.5 1.3 1.3 0.5 2.7 0.8 1.4 0.3 2.8 0.3h143.1c1.9 0 3.7-0.4 5.5-1.2 1.7-0.7 3.3-1.7 4.6-3.1 1.3-1.3 2.4-2.9 3.1-4.6 0.7-1.8 1.1-3.6 1.1-5.5v-63.9c0-1.8-0.3-3.7-1.1-5.4-0.7-1.8-1.7-3.3-3-4.7-1.3-1.3-2.9-2.3-4.6-3.1-1.7-0.7-3.6-1.1-5.4-1.1q-0.1 0-0.2 0z"/>
	<path id="Layer" class="s1" d="m166.7 53.3c0-1.2-0.2-2.4-0.7-3.5-0.4-1.1-1.1-2.1-2-3-0.8-0.9-1.8-1.6-2.9-2-1.1-0.5-2.3-0.8-3.5-0.8q-0.1 0-0.2 0h-40l23 38.4 2.1 0.2 1.3 1.8v1.6l1.5 0.3 1.3 1.8v1.6l1.5 0.3 1.5 1.6v3.7q0.7 0.6 1.4 1.2 0.7 0.5 1.5 1 0.7 0.5 1.5 1 0.8 0.4 1.6 0.8c2.1 0.8 2.3 4 3.5 5.8 1.5 2.5 3.6 3.5 3.2 4.9-1 3.8-4.9 10.1-8.5 10.4h-14.2v6.1h17.8c1.2 0 2.4-0.3 3.6-0.7 1.1-0.5 2.1-1.2 3-2.1 0.8-0.8 1.5-1.9 2-3 0.4-1.1 0.7-2.3 0.7-3.5v-0.1-63.8"/>
	<path id="Layer" class="s2" d="m68.8 120.5h-6.9c0-17.2 5.9-26.7 12.8-28.6 1-0.1 0.5-4.8-0.7-6.3h-4c-0.7 0-0.3-1.2-0.3-1.2l3.3-6.9-0.5-1.9h-12l9.9-7c0.4-18.2 19.1-19.6 30.4-12 6.7 4.4 7.2 13.2 6.7 19.3-0.1 0.4-1.7 0.1-1.7 0.1 0 0-1.2 6.7 1.8 6.7h13.2c5.3-0.2 10.5 3.4 10.5 3.4l1.3-4.6-28.8-37.5h-89.5q-0.9 0-1.8 0.2-0.9 0.2-1.8 0.5-0.8 0.4-1.6 0.9-0.7 0.5-1.4 1.1-0.7 0.7-1.2 1.4-0.5 0.8-0.8 1.6-0.4 0.9-0.5 1.8-0.2 0.9-0.2 1.8v63.9q0 0.9 0.2 1.8 0.1 0.9 0.5 1.8 0.3 0.8 0.8 1.6 0.5 0.7 1.2 1.4 0.6 0.6 1.4 1.2 0.8 0.5 1.6 0.8 0.9 0.4 1.8 0.6 0.9 0.1 1.8 0.1h58.1c-1.4-2.4-3.1-5.2-3.6-6"/>
	<path id="Layer" class="s0" d="m17.9 107c0-2.6 1.6-4.9 3.9-5.9 2.4-1 5.1-0.5 7 1.4 1.8 1.8 2.3 4.5 1.3 6.9-1 2.4-3.3 3.9-5.8 3.9h-0.1q-1.2 0-2.4-0.5-1.2-0.4-2-1.3-0.9-0.9-1.4-2.1-0.5-1.1-0.5-2.4 0 0 0 0z"/>
</svg>