<svg xmlns="http://www.w3.org/2000/svg" version="1.2" viewBox="0 0 172 172"><style>.s0{fill:#fff}</style><path id="Layer" d="M157.4 39H14.3q-1.4 0-2.8.3-1.4.2-2.7.8-1.3.5-2.4 1.3-1.2.7-2.2 1.7-1 1-1.8 2.2-.8 1.2-1.3 2.5-.6 1.3-.8 2.7-.3 1.4-.3 2.8v63.9q0 1.4.3 2.8.2 1.4.8 2.7.5 1.3 1.3 2.5t1.8 2.2q1 1 2.1 1.8 1.2.7 2.5 1.3 1.3.5 2.7.8 1.4.3 2.8.3h143.1c1.9 0 3.7-.4 5.5-1.2 1.7-.7 3.3-1.7 4.6-3.1 1.3-1.3 2.4-2.9 3.1-4.6.7-1.8 1.1-3.6 1.1-5.5V53.3c0-1.8-.3-3.7-1.1-5.4-.7-1.8-1.7-3.3-3-4.7-1.3-1.3-2.9-2.3-4.6-3.1-1.7-.7-3.6-1.1-5.4-1.1z" class="s0"/><path d="M166.7 53.3c0-1.2-.2-2.4-.7-3.5-.4-1.1-1.1-2.1-2-3-.8-.9-1.8-1.6-2.9-2-1.1-.5-2.3-.8-3.5-.8h-40.2l23 38.4 2.1.2 1.3 1.8V86l1.5.3 1.3 1.8v1.6l1.5.3 1.5 1.6v3.7l1.4 1.2q.7.5 1.5 1 .7.5 1.5 1l1.6.8c2.1.8 2.3 4 3.5 5.8 1.5 2.5 3.6 3.5 3.2 4.9-1 3.8-4.9 10.1-8.5 10.4h-14.2v6.1h17.8c1.2 0 2.4-.3 3.6-.7 1.1-.5 2.1-1.2 3-2.1.8-.8 1.5-1.9 2-3 .4-1.1.7-2.3.7-3.5v-.1z" style="fill:#bf0d3e"/><path d="M68.8 120.5h-6.9c0-17.2 5.9-26.7 12.8-28.6 1-.1.5-4.8-.7-6.3h-4c-.7 0-.3-1.2-.3-1.2l3.3-6.9-.5-1.9h-12l9.9-7c.4-18.2 19.1-19.6 30.4-12 6.7 4.4 7.2 13.2 6.7 19.3-.1.4-1.7.1-1.7.1s-1.2 6.7 1.8 6.7h13.2c5.3-.2 10.5 3.4 10.5 3.4l1.3-4.6L103.8 44H14.3q-.9 0-1.8.2t-1.8.5q-.8.4-1.6.9-.7.5-1.4 1.1-.7.7-1.2 1.4-.5.8-.8 1.6-.4.9-.5 1.8-.2.9-.2 1.8v63.9q0 .9.2 1.8.1.9.5 1.8.3.8.8 1.6.5.7 1.2 1.4.6.6 1.4 1.2.8.5 1.6.8.9.4 1.8.6.9.1 1.8.1h58.1c-1.4-2.4-3.1-5.2-3.6-6" style="fill:#041e42"/><path d="M17.9 107c0-2.6 1.6-4.9 3.9-5.9 2.4-1 5.1-.5 7 1.4 1.8 1.8 2.3 4.5 1.3 6.9-1 2.4-3.3 3.9-5.8 3.9h-.1q-1.2 0-2.4-.5-1.2-.4-2-1.3-.9-.9-1.4-2.1-.5-1.1-.5-2.4" class="s0"/></svg>