<svg version="1.2" xmlns="http://www.w3.org/2000/svg" viewBox="0 0 450 450" width="200" height="200">
	<title>mls_logo-svg</title>
	<defs>
		<linearGradient id="g1" x2="1" gradientUnits="userSpaceOnUse" gradientTransform="matrix(369.775,0,0,311.323,40.272,181.267)">
			<stop offset="0" stop-color="#e2231a"/>
			<stop offset=".16" stop-color="#db231b"/>
			<stop offset=".394" stop-color="#c7231f"/>
			<stop offset=".674" stop-color="#a72325"/>
			<stop offset=".986" stop-color="#7b232e"/>
			<stop offset="1" stop-color="#79232e"/>
		</linearGradient>
		<radialGradient id="g2" cx="0" cy="0" r="1" gradientUnits="userSpaceOnUse" gradientTransform="matrix(200.14,0,0,200.14,225.167,223.422)">
			<stop offset="0" stop-color="#009add"/>
			<stop offset="1" stop-color="#001f5b"/>
		</radialGradient>
	</defs>
	<style>
		.s0 { fill: #ffffff } 
		.s1 { fill: url(#g1) } 
		.s2 { fill: #001f5b } 
		.s3 { fill: url(#g2) } 
	</style>
	<g id="Layer 2">
		<g id="Layer 1">
			<path id="Layer" class="s0" d="m436.1 26v-26h-421.9v26c0 0 0 146.1 0 146.9 0 14.4 1.1 28.7 3.2 42.8 2.2 14.2 5.4 28.2 9.6 41.9 4.3 13.7 9.6 27 15.8 39.9 6.3 12.9 13.6 25.2 21.7 37l-52.5 52.5 36.8 36.9 49.2-49.2q4.4 4.4 9 8.6 4.7 4.2 9.4 8.2 4.8 4 9.8 7.8 5 3.8 10.1 7.3 9.3 6.5 19.1 12.3 9.8 5.7 20 10.7 10.3 4.9 20.9 9 10.6 4.1 21.4 7.3l7.5 2.2 7.4-2.2c29.2-8.6 56.9-22 81.9-39.4 24.9-17.4 47-38.8 65.2-63.2 18.2-24.5 32.4-51.7 42-80.6 9.6-28.9 14.4-59.2 14.4-89.7 0-0.9 0-147 0-147z"/>
			<path id="Layer" class="s1" d="m410 25.6h-369.7c0 0 0 146.3 0 147.1-0.1 14.9 1.2 29.7 3.7 44.3 2.6 14.6 6.3 29 11.3 42.9 5 14 11.2 27.5 18.5 40.4 7.4 12.9 15.8 25.2 25.2 36.6l311-311z"/>
			<path id="Layer" class="s0" d="m225.2 420.9c106.9-31.9 184.9-130.9 184.9-248.2 0-0.8-0.1-139.7-0.1-146.8l-311 311c8.1 9.9 17 19.2 26.5 27.8 9.5 8.6 19.6 16.5 30.3 23.6 10.7 7.1 21.9 13.4 33.5 18.9 11.6 5.4 23.6 10 35.9 13.7z"/>
			<path id="Layer" class="s2" d="m100.7 294.6l-2.3 2.3 6.3 6.3-1.5 1.4-6.2-6.3-2.3 2.3-1.2-1.2 6-6zm9.8-1.5l-3.3-7.4 2.1-2 7.5 7.4-1.4 1.4-5.8-5.9-0.1 0.1 3.7 8-1.1 1.1-8-3.6h-0.1l5.9 5.8-1.4 1.4-7.4-7.5 2.1-2.1z"/>
			<path id="Layer" fill-rule="evenodd" class="s0" d="m180.2 172.5l4.7 14.6-12.3-9-12.4 9 4.8-14.6-12.4-8.9h15.3l4.7-14.6 4.7 14.6h15.3zm-66.4 14.5l-12.3-9-12.4 9 4.7-14.5-12.3-9h15.2l4.8-14.5 4.7 14.5h15.2l-12.3 9zm43.2 23.7l-12.4 9 4.7 14.5-12.3-8.9-12.4 8.9 4.8-14.5-12.4-9h15.3l4.7-14.5 4.7 14.5zm-61.5-95.1l-14-31.9h-0.4v42.5q0 0.3-0.1 0.5-0.1 0.2-0.2 0.4-0.2 0.1-0.4 0.2-0.2 0.1-0.4 0.1h-12.6q-0.2 0-0.4-0.1-0.2-0.1-0.4-0.2-0.1-0.2-0.2-0.4-0.1-0.2-0.1-0.5v-73.3q0-0.2 0.1-0.4 0.1-0.3 0.2-0.4 0.2-0.2 0.4-0.3 0.2 0 0.4 0h13.2q0.3 0 0.6 0 0.3 0.1 0.5 0.2 0.3 0.2 0.4 0.4 0.2 0.2 0.3 0.5l19.1 43.1h0.5l18.8-43.1q0.1-0.3 0.2-0.5 0.2-0.2 0.5-0.4 0.2-0.1 0.5-0.2 0.3 0 0.5 0h13.1q0.2 0 0.4 0 0.2 0.1 0.4 0.3 0.1 0.1 0.2 0.4 0.1 0.2 0.1 0.4v73.3q0 0.3-0.1 0.5-0.1 0.2-0.2 0.4-0.2 0.1-0.4 0.2-0.2 0.1-0.4 0.1h-12.6q-0.2 0-0.4-0.1-0.3-0.1-0.4-0.2-0.2-0.2-0.3-0.4 0-0.2 0-0.5v-42.5h-0.5l-14 31.9q-0.1 0.3-0.3 0.6-0.2 0.3-0.5 0.5-0.3 0.1-0.6 0.2-0.3 0.1-0.7 0.1h-7.7q-0.3 0-0.6-0.1-0.4-0.1-0.6-0.2-0.3-0.2-0.5-0.5-0.2-0.3-0.4-0.6zm52 11.7q-0.2-0.1-0.4-0.2-0.1-0.2-0.2-0.4-0.1-0.2-0.1-0.5v-73.3q0-0.2 0.1-0.4 0.1-0.3 0.2-0.4 0.2-0.2 0.4-0.3 0.2 0 0.4 0h14.2q0.2 0 0.4 0 0.2 0.1 0.4 0.3 0.1 0.1 0.2 0.4 0.1 0.2 0.1 0.4v59.2q0 0.2 0 0.3 0 0.1 0.1 0.2 0.1 0.1 0.3 0.2 0.1 0 0.2 0h33.4q0.2 0 0.4 0.1 0.2 0 0.4 0.2 0.1 0.2 0.2 0.4 0.1 0.2 0.1 0.4v12.3q0 0.3-0.1 0.5-0.1 0.2-0.2 0.4-0.2 0.1-0.4 0.2-0.2 0.1-0.4 0.1h-49.3q-0.2 0-0.4-0.1zm115.6-22.5c0 13.7-10.1 23.8-29.7 23.8-11.8 0-23.2-4.7-29.1-10.4q-0.2-0.1-0.3-0.4-0.1-0.2-0.1-0.5-0.1-0.2 0-0.5 0.1-0.2 0.3-0.4l8.4-9.7q0.2-0.2 0.4-0.3 0.2-0.1 0.4-0.1 0.3-0.1 0.5 0 0.2 0.1 0.4 0.3c5 4 11.8 7.8 19.8 7.8 7.9 0 12.3-3.7 12.3-9 0-4.5-2.7-7.3-11.7-8.5l-4-0.6c-15.3-2.1-23.9-9.3-23.9-22.6 0-13.9 10.5-23.1 26.8-23.1 10 0 19.4 3 25.7 7.8 0.7 0.5 0.8 0.9 0.2 1.7l-6.8 10.1q-0.1 0.2-0.3 0.3-0.1 0.2-0.4 0.2-0.2 0.1-0.4 0-0.2 0-0.4-0.1c-5.8-3.8-11.3-5.8-17.6-5.8-6.6 0-10.1 3.4-10.1 8.2 0 4.3 3.1 7.1 11.8 8.3l4 0.6c15.6 2.1 23.8 9.2 23.8 22.9z"/>
			<path id="Layer" fill-rule="evenodd" class="s3" d="m418.7 172.7c0.1 14.5-1.1 28.9-3.4 43.1-2.3 14.3-5.8 28.3-10.4 42-4.6 13.7-10.3 27-17 39.8-6.8 12.8-14.5 25-23.3 36.5q-6.3 8.4-13.3 16.3-7 7.8-14.6 15.2-7.6 7.3-15.8 14-8.1 6.6-16.8 12.7-8.7 6.1-17.9 11.5-9.2 5.4-18.8 10-9.6 4.6-19.6 8.5-9.9 3.8-20.2 6.9l-2.4 0.7-2.5-0.7q-10.2-3.1-20.2-6.9-9.9-3.9-19.5-8.5-9.6-4.6-18.8-10-9.3-5.4-18-11.5-6.6-4.6-12.9-9.6-6.3-5-12.2-10.3-6-5.3-11.7-11-5.6-5.7-10.9-11.7l-49.7 49.6-12.2-12.3 50.8-50.8q-0.9-1-1.7-2.1c-8.7-11.5-16.5-23.7-23.2-36.5-6.8-12.8-12.5-26.1-17.1-39.8-4.6-13.7-8-27.7-10.4-42-2.3-14.2-3.4-28.6-3.4-43.1 0-0.8 0-147.1 0-147.1v-8.7h387.1v8.7c0 0 0 146.3 0 147.1zm-319 151.1l289.6-289.5h-340.3c0 31.4 0 137.7 0 138.4-0.1 13.5 1 27 3.2 40.3 2.1 13.4 5.4 26.5 9.7 39.3 4.3 12.8 9.6 25.2 15.9 37.2 6.3 11.9 13.6 23.3 21.7 34.1q0.1 0.1 0.2 0.2zm294.1-89.9q2.6-10 4.2-20.1 1.7-10.2 2.6-20.5 0.8-10.3 0.8-20.6c0-0.6 0-85.4 0-125.9l-290.6 290.6q5 5.7 10.4 11.1 5.3 5.5 11 10.6 5.7 5.1 11.7 9.8 6 4.8 12.2 9.1 7.9 5.6 16.3 10.5 8.3 4.9 16.9 9.1 8.7 4.2 17.7 7.8 8.9 3.5 18.2 6.4 9.2-2.9 18.2-6.4 8.9-3.6 17.6-7.8 8.7-4.2 17-9.1 8.3-4.9 16.2-10.5 8.1-5.6 15.7-11.9 7.6-6.2 14.7-13.1 7.1-6.8 13.7-14.2 6.5-7.3 12.5-15.2 6-7.9 11.4-16.3 5.3-8.4 10-17.2 4.7-8.8 8.6-17.9 4-9.1 7.2-18.5 3.3-9.8 5.8-19.8z"/>
		</g>
	</g>
</svg>