<svg xmlns="http://www.w3.org/2000/svg" version="1.2" viewBox="0 0 450 450"><defs><radialGradient id="g2" cx="0" cy="0" r="1" gradientTransform="translate(225.167 223.422)scale(200.14)" gradientUnits="userSpaceOnUse"><stop offset="0" stop-color="#009add"/><stop offset="1" stop-color="#001f5b"/></radialGradient><linearGradient id="g1" x2="1" gradientTransform="matrix(369.775 0 0 311.323 40.272 181.267)" gradientUnits="userSpaceOnUse"><stop offset="0" stop-color="#e2231a"/><stop offset=".16" stop-color="#db231b"/><stop offset=".394" stop-color="#c7231f"/><stop offset=".674" stop-color="#a72325"/><stop offset=".986" stop-color="#7b232e"/><stop offset="1" stop-color="#79232e"/></linearGradient></defs><style>.s0{fill:#fff}</style><g id="Layer 2"><g id="Layer 1"><path id="Layer" d="M436.1 26V0H14.2v172.9c0 14.4 1.1 28.7 3.2 42.8 2.2 14.2 5.4 28.2 9.6 41.9 4.3 13.7 9.6 27 15.8 39.9 6.3 12.9 13.6 25.2 21.7 37L12 387l36.8 36.9L98 374.7q4.4 4.4 9 8.6 4.7 4.2 9.4 8.2 4.8 4 9.8 7.8 5 3.8 10.1 7.3 9.3 6.5 19.1 12.3 9.8 5.7 20 10.7 10.3 4.9 20.9 9 10.6 4.1 21.4 7.3l7.5 2.2 7.4-2.2c29.2-8.6 56.9-22 81.9-39.4 24.9-17.4 47-38.8 65.2-63.2 18.2-24.5 32.4-51.7 42-80.6 9.6-28.9 14.4-59.2 14.4-89.7z" class="s0"/><path d="M410 25.6H40.3v147.1c-.1 14.9 1.2 29.7 3.7 44.3 2.6 14.6 6.3 29 11.3 42.9 5 14 11.2 27.5 18.5 40.4 7.4 12.9 15.8 25.2 25.2 36.6l311-311z" style="fill:url(#g1)"/><path d="M225.2 420.9C332.1 389 410.1 290 410.1 172.7c0-.8-.1-139.7-.1-146.8l-311 311c8.1 9.9 17 19.2 26.5 27.8 9.5 8.6 19.6 16.5 30.3 23.6 10.7 7.1 21.9 13.4 33.5 18.9 11.6 5.4 23.6 10 35.9 13.7" class="s0"/><path d="m100.7 294.6-2.3 2.3 6.3 6.3-1.5 1.4-6.2-6.3-2.3 2.3-1.2-1.2 6-6zm9.8-1.5-3.3-7.4 2.1-2 7.5 7.4-1.4 1.4-5.8-5.9-.1.1 3.7 8-1.1 1.1-8-3.6h-.1l5.9 5.8-1.4 1.4-7.4-7.5 2.1-2.1z" style="fill:#001f5b"/><path fill-rule="evenodd" d="m180.2 172.5 4.7 14.6-12.3-9-12.4 9 4.8-14.6-12.4-8.9h15.3l4.7-14.6 4.7 14.6h15.3zM113.8 187l-12.3-9-12.4 9 4.7-14.5-12.3-9h15.2l4.8-14.5 4.7 14.5h15.2l-12.3 9zm43.2 23.7-12.4 9 4.7 14.5-12.3-8.9-12.4 8.9 4.8-14.5-12.4-9h15.3l4.7-14.5 4.7 14.5zm-61.5-95.1-14-31.9h-.4v42.5q0 .3-.1.5l-.2.4-.4.2q-.2.1-.4.1H67.4q-.2 0-.4-.1l-.4-.2-.2-.4q-.1-.2-.1-.5V52.9q0-.2.1-.4.1-.3.2-.4.2-.2.4-.3h14.2q.3.1.5.2.3.2.4.4.2.2.3.5L101.5 96h.5l18.8-43.1q.1-.3.2-.5.2-.2.5-.4.2-.1.5-.2h14q.2.1.4.3.1.1.2.4.1.2.1.4v73.3q0 .3-.1.5l-.2.4-.4.2q-.2.1-.4.1H123q-.2 0-.4-.1-.3-.1-.4-.2-.2-.2-.3-.4v-43h-.5l-14 31.9q-.1.3-.3.6-.2.3-.5.5l-.6.2q-.3.1-.7.1h-7.7q-.3 0-.6-.1-.4-.1-.6-.2-.3-.2-.5-.5zm52 11.7-.4-.2-.2-.4q-.1-.2-.1-.5V52.9q0-.2.1-.4.1-.3.2-.4.2-.2.4-.3h15q.2.1.4.3.1.1.2.4.1.2.1.4v59.5q0 .1.1.2t.3.2h33.6q.2 0 .4.1.2 0 .4.2l.2.4q.1.2.1.4v12.3q0 .3-.1.5l-.2.4-.4.2q-.2.1-.4.1h-49.3q-.2 0-.4-.1m115.6-22.5c0 13.7-10.1 23.8-29.7 23.8-11.8 0-23.2-4.7-29.1-10.4q-.2-.1-.3-.4-.1-.2-.1-.5-.1-.2 0-.5.1-.2.3-.4l8.4-9.7q.2-.2.4-.3.2-.1.4-.1.3-.1.5 0t.4.3c5 4 11.8 7.8 19.8 7.8 7.9 0 12.3-3.7 12.3-9 0-4.5-2.7-7.3-11.7-8.5l-4-.6c-15.3-2.1-23.9-9.3-23.9-22.6 0-13.9 10.5-23.1 26.8-23.1 10 0 19.4 3 25.7 7.8.7.5.8.9.2 1.7l-6.8 10.1q-.1.2-.3.3-.1.2-.4.2-.2.1-.4 0-.2 0-.4-.1c-5.8-3.8-11.3-5.8-17.6-5.8-6.6 0-10.1 3.4-10.1 8.2 0 4.3 3.1 7.1 11.8 8.3l4 .6c15.6 2.1 23.8 9.2 23.8 22.9" class="s0"/><path fill-rule="evenodd" d="M418.7 172.7c.1 14.5-1.1 28.9-3.4 43.1-2.3 14.3-5.8 28.3-10.4 42-4.6 13.7-10.3 27-17 39.8-6.8 12.8-14.5 25-23.3 36.5q-6.3 8.4-13.3 16.3-7 7.8-14.6 15.2-7.6 7.3-15.8 14-8.1 6.6-16.8 12.7-8.7 6.1-17.9 11.5t-18.8 10q-9.6 4.6-19.6 8.5-9.9 3.8-20.2 6.9l-2.4.7-2.5-.7q-10.2-3.1-20.2-6.9-9.9-3.9-19.5-8.5t-18.8-10q-9.3-5.4-18-11.5-6.6-4.6-12.9-9.6-6.3-5-12.2-10.3-6-5.3-11.7-11-5.6-5.7-10.9-11.7l-49.7 49.6L36.6 387l50.8-50.8q-.9-1-1.7-2.1c-8.7-11.5-16.5-23.7-23.2-36.5-6.8-12.8-12.5-26.1-17.1-39.8-4.6-13.7-8-27.7-10.4-42-2.3-14.2-3.4-28.6-3.4-43.1V16.9h387.1v8.7zm-319 151.1L389.3 34.3H49v138.4c-.1 13.5 1 27 3.2 40.3 2.1 13.4 5.4 26.5 9.7 39.3 4.3 12.8 9.6 25.2 15.9 37.2 6.3 11.9 13.6 23.3 21.7 34.1zm294.1-89.9q2.6-10 4.2-20.1 1.7-10.2 2.6-20.5.8-10.3.8-20.6V46.8L110.8 337.4q5 5.7 10.4 11.1 5.3 5.5 11 10.6t11.7 9.8q6 4.8 12.2 9.1 7.9 5.6 16.3 10.5 8.3 4.9 16.9 9.1 8.7 4.2 17.7 7.8 8.9 3.5 18.2 6.4 9.2-2.9 18.2-6.4 8.9-3.6 17.6-7.8 8.7-4.2 17-9.1 8.3-4.9 16.2-10.5 8.1-5.6 15.7-11.9 7.6-6.2 14.7-13.1 7.1-6.8 13.7-14.2 6.5-7.3 12.5-15.2 6-7.9 11.4-16.3 5.3-8.4 10-17.2 4.7-8.8 8.6-17.9 4-9.1 7.2-18.5 3.3-9.8 5.8-19.8" style="fill:url(#g2)"/></g></g></svg>