<svg version="1.2" xmlns="http://www.w3.org/2000/svg" viewBox="0 0 1000 1000" width="200" height="200">
	<title>nba_logo-svg</title>
	<style>
		.s0 { fill: #ffffff } 
		.s1 { fill: #da1a32 } 
		.s2 { fill: #00438c } 
	</style>
	<path id="Layer" class="s0" d="m616.9 0h-234.1c-57.1 0-103.5 46.3-103.5 103.5v792.7c0 57.2 46.3 103.6 103.5 103.8h234.1c57.2-0.2 103.6-46.5 103.8-103.8v-792.7c-0.4-57.2-46.7-103.3-103.8-103.5z"/>
	<path id="Layer" class="s1" d="m558.8 183.1v3.2c7.1 4.1 10.6 7.7 18 12.1 19.2 12.1 42.7 33.3 39.5 107 5.3 15.9 7.7 47.5 12.7 57.8 10 19.8 16.5 32.4 19.4 51.3 0 0 3 28.9 6.5 31 19.8 4.4 14.2 6.4 16.8 9.7 2.7 3.2 14.5 3.8 14.5 14.4 3.6 5.2 6.7 10.7 9.1 16.5v-382.6c0-43.5-35.2-78.9-78.7-79h-75.8c12.1 4.4 18.9 9.4 23 17.4 9.8 0.8 21.5 22.7 3.3 55.1 7.9 5.3 1.7 13.3-4.2 22.7-1.7 2.9-3.5 8.3-8.8 8-6.8 14.4-15 28.6-21.5 29.4-1.8 2.4-3.3 8.6-0.3 11.5 9.6 3.4 18.5 8.3 26.5 14.5zm137.1 355.2c-14.5 36.1-55.5 53.7-91.6 39.2-36.1-14.5-53.7-55.5-39.2-91.6 8.4-21.1 26.5-36.8 48.6-42.2-8.3-20.3-25.4-53.4-30.4-64.3-5-10.9-16.5-77.8-18.9-91.1-0.6-2.9-30.3 17.4-30.3 18.6 0 1.2-22.5 55.7-23.3 58.7-0.9 2.9-0.6 9.1-0.6 9.1 0 0 10 1.2 15.9 18.9 5.9 17.7 23.3 82.2 23.3 82.2 0 0-4.7 5-5 4.7 22.4 74.6 14.4 106.8 24.4 128.6 12.7 30.9 16 26.8 26.9 52.8 7.6 18.8 16.2 93.1 19.1 96.4 12.1 15.3 18.6 27.1 18.6 35.6 0 8.6-10.3 34.2-6.5 49.3 2.4 8.8 3.6 28.3 7.4 32.1 3.8 3.8 3.8 7.4 1.8 10.6-0.8 1.2-1.2 2.7-1.2 4.1 6.8 23.3 28 63.4-6.8 84.4h0.9c38.5-6 66.8-39.2 66.6-78.2v-357.9c0 0 0.3 0 0.3 0z"/>
	<path id="Layer" class="s2" d="m606.9 880.9c-12.7-11.2-4.2-16.2-4.8-20.6-8.2-34.5-35.9-55.8-21.5-67-3.5-11.5-10.6-25.6-10.3-25.6-42.7-24.5-79.3-64.6-85.5-70.5-6.2-5.9-20.3-16.5-22.7-23-10.3-9.4-60.7-81-72.5-107.6l-20.6-2.9c-9.5-38-40.4-70.2-41.3-108.2-0.3-14.5 6.5-45.4 9.1-51.6 2.7-6.2 14.5-16.5 14.5-16.5v-10.3c-44.8 1.1-31.9-3.3-39.5-20.7-5.3-12.1-1.5-14.7 0.3-23 5.9-24.7 25.9-62.8 34.2-79.9 2.6-8.8 11.2-29.7 11.2-29.7 33.3-67.8 45.7-62.8 85.5-66.7l2-2.9c39.8-1.8 33.3-4.7 38.9-43.1-5.9 2.4-7.3-12-7.3-12-3.3-21.9 5.9-17.7 10.3-18 0.9-35.7 4.7-46.9 30.3-56.9h-134.4c-43.6 0-79 35.3-79 79v792.7c0 43.7 35.3 79.2 79 79.3h234.1c-26.8-14.4-10.9-41.8-10-94.3z"/>
	<path id="Layer" fill-rule="evenodd" class="s0" d="m427.1 925.7v-143.6h27.8c16.1 0 26 8.7 26 28.8v21.4c0 13-4 19.6-9.5 22.9 5.5 3.8 9.5 10.3 9.5 21.2v20.8c0 19.6-10.6 28.5-26 28.5 0 0-27.8 0-27.8 0zm19.1-62.3v44.2h7.3c6.6 0 8.3-3.4 8.3-10.2v-24.3c0-7.1-2.3-9.7-8.5-9.7 0 0-7.1 0-7.1 0zm0-15.8h7.1c6.8 0 8.5-2.5 8.5-10.3v-27.6c0-6.6-2.1-9.7-8.3-9.7h-7.3zm79.8 49h-17.3l-2.5 29.1h-19.2l17.3-143.6h27.5l16.6 143.6h-20.1zm-8.5-98.2h-1c-1.3 17.3-3.7 47.5-4.4 57.3l-2.2 24.6h14.9l-2.3-24.6c-0.7-9.9-3.4-40-5-57.3zm-147.2 127.4h-16.7v-143.6h26.4l21.3 117.6c-1.7-28.2-4.1-62.2-4.1-91.2v-26.6h16.6v143.6h-24.3l-21.3-114.9c1.4 26.6 1.9 47.7 1.9 69.8v45.3c0 0 0.2 0 0.2 0z"/>
</svg>