<svg version="1.2" xmlns="http://www.w3.org/2000/svg" viewBox="0 0 240 240" width="200" height="200">
	<title>nfl_logo-svg</title>
	<defs>
		<clipPath clipPathUnits="userSpaceOnUse" id="cp1">
			<path d="m29.77 243.09h177.94v-245.52h-177.94z"/>
		</clipPath>
	</defs>
	<style>
		.s0 { fill: #ffffff } 
		.s1 { fill: #013369 } 
		.s2 { fill: #d50a0a } 
	</style>
	<g id="Clip-Path" clip-path="url(#cp1)">
		<g id="Layer">
			<path id="Layer" class="s0" d="m202.1 25.8c-7.4 5.6-22.3 13-40.9 8.4-32.9-8.1-42.2-36.3-42.2-36.3 0 0-9.3 28.2-42.1 36.3-18.9 4.6-33.5-2.9-41.2-8.4h-5.9v151.9c0 4 0.9 11.5 7.1 19.2 7.7 9.3 20.8 15.3 38.8 17.9 14.5 2.1 25.1 6.6 32.5 13.8 5.6 5.3 10.9 14.5 10.9 14.5 0 0 5.4-9.3 10.7-14.5 7.5-7.2 18.1-11.7 32.6-13.8 18-2.6 31-8.7 38.7-18 6.2-7.6 7.2-15.2 7.2-19v-151.9h-6"/>
			<path id="Layer" class="s1" d="m202.7 31.7c0 0-17.8 13.9-43 7.6-29.4-7.4-41-29.3-41-29.3 0 0-11.4 22-40.9 29.3-24.8 6.2-42.8-7.8-42.8-7.8v146.1c0 4.9 2.1 26 41.6 31.6 15.5 2.2 27.1 7.2 35.3 15.2 3 2.9 5.3 5.8 7 8.5 1.8-2.7 4.1-5.6 7-8.5 8.4-8 20-13 35.4-15.2 39.3-5.7 41.2-26.8 41.5-31.6v-146.1"/>
			<path id="Layer" class="s0" d="m119 218.4c0 0 11.5-14.1 41-18.6 34.1-5.3 32.8-21.2 32.8-22v-76.6h-147.8v76.6c0 0.8-1 16.7 32.8 22 29.7 4.5 40.9 18.6 40.9 18.6"/>
			<path id="Layer" class="s2" d="m84.3 157.2v-36.2l-4.5-2.6v-9.4h20.8v9.4l-4.4 2.6v74l-11.1-3.3-16-47.4v31.3l5.1 3.9v9.7l-22.3-5.7v-8.2l5.1-2v-52.4l-5.2-2.6v-9.4h16.8l15.8 48.3m38.4 33.2l4.4 5.3v9.4l-22.1-8.2v-8l4.9-2v-66l-4.8-2.5v-9.5h38.4v19.2h-8.4l-2.6-7.9h-9.8v22.2h7.4l2.8-4.2h5.9v19.7h-5.9l-2.7-4h-7.5v36.6m24.5 3.3v-9.4l5.4-4.5v-58.9l-4.6-2.5v-9.5h22.1v9.5l-4.4 2.5v55.5l9.5-2.6 1.9-14.5h9v24.2l-39 10.5"/>
			<path id="Layer" fill-rule="evenodd" class="s0" d="m48.8 85.6l-6.7-5h8.2l2.7-7.8 2.7 7.8h8.2l-6.7 5 2.5 7.9-6.7-4.7-6.7 4.7 2.5-7.9m29 0l-6.7-5h8.2l2.7-7.8 2.7 7.8h8.2l-6.7 5 2.5 7.9-6.7-4.7-6.7 4.7 2.5-7.9zm-29-26l-6.7-5h8.2l2.7-7.8 2.7 7.8h8.2l-6.7 5 2.4 7.9-6.6-4.7-6.7 4.7 2.5-7.9zm29 0l-6.7-5h8.1l2.7-7.7 2.7 7.7h8.2l-6.7 5.1 2.5 7.8-6.7-4.6-6.6 4.6 2.4-7.8zm113.8 33.8v-0.1 0.1zm-6.6-4.7l-6.7 4.7 2.5-7.9-6.7-5.1h8.1l2.7-7.7 2.7 7.7h8.2l-6.7 5.1 2.5 7.8zm-22.5 4.7zm-6.6-4.7l-6.7 4.7 2.5-7.9-6.7-5h8.2l2.7-7.8 2.7 7.8h8.1l-6.7 5 2.5 7.9zm35.8-21.4zm-6.6-4.7l-6.7 4.7 2.5-7.8-6.7-5.1h8.2l2.7-7.7 2.7 7.7h8.1l-6.7 5.1 2.5 7.8zm-22.5 4.7zm-6.6-4.7l-6.7 4.7 2.5-7.9-6.7-5h8.2l2.7-7.8 2.7 7.8h8.2l-6.7 5 2.4 7.9zm-18.5-24.3c0.7-0.1 1.1 0.8 1.3 1.3 2.9 7.3 3.7 16.2 1.5 24.7-3.4 13-14.3 25-37.9 28.1-0.5 0-1.1-0.1-1.1-0.4 1-5 3.7-14.4 9.4-24.4 1.1 0.6 2.2 1.3 3.2 2.1 0.3-0.6 0.8-1.3 1.5-2.4-2.9-2.3-6.2-3.9-10-4.6 0 0-0.7 1.4-1.3 2.5 0 0 1.5 0.2 3.3 0.8-5.1 10.9-6.8 21-7.3 25.6-1.5-2.4-2.6-7.7-3-10.6-3.7-27.4 16-43.4 37.5-43.7 1.5 0 2 0.3 2 0.3 0 0-4.7 1.8-10.2 5.9 0 0-1.3-0.5-2.7-0.9-0.8 0.6-1.7 1.2-2.6 1.8 2.6 0.6 5.8 1.9 9 4.5 0.7-0.6 1.4-1.3 2.2-2-0.7-0.6-2-1.4-3.1-2 4.9-4.8 8.3-6.6 8.3-6.6zm-16.3 20.5q0.9-1.2 2-2.5c-3.4-2.7-7.2-4.3-10.2-4.8-0.7 0.7-1.4 1.6-2 2.3 3.9 0.8 7.4 2.6 10.2 5zm-3.9 5.4q0.8-1.2 1.8-2.5c-2.5-2.1-5.9-4.1-10.2-4.9-0.6 0.9-1.7 2.7-1.7 2.7 3.5 0.6 7.1 2.2 10.1 4.7zm8.2-10.6q1-1.1 2.1-2.2c-2-1.7-5-3.7-9.4-4.7-0.8 0.6-1.7 1.3-2.6 2.1 3.6 0.8 6.9 2.4 9.9 4.8z"/>
		</g>
	</g>
</svg>