<svg xmlns="http://www.w3.org/2000/svg" version="1.2" viewBox="0 0 240 240"><defs><clipPath id="cp1" clipPathUnits="userSpaceOnUse"><path d="M29.77 243.09h177.94V-2.43H29.77z"/></clipPath></defs><style>.s0{fill:#fff}</style><g id="Clip-Path" clip-path="url(#cp1)"><g id="Layer"><path d="M202.1 25.8c-7.4 5.6-22.3 13-40.9 8.4C128.3 26.1 119-2.1 119-2.1s-9.3 28.2-42.1 36.3c-18.9 4.6-33.5-2.9-41.2-8.4h-5.9v151.9c0 4 .9 11.5 7.1 19.2 7.7 9.3 20.8 15.3 38.8 17.9 14.5 2.1 25.1 6.6 32.5 13.8 5.6 5.3 10.9 14.5 10.9 14.5s5.4-9.3 10.7-14.5c7.5-7.2 18.1-11.7 32.6-13.8 18-2.6 31-8.7 38.7-18 6.2-7.6 7.2-15.2 7.2-19V25.9h-6" class="s0"/><path d="M202.7 31.7s-17.8 13.9-43 7.6c-29.4-7.4-41-29.3-41-29.3s-11.4 22-40.9 29.3C53 45.5 35 31.5 35 31.5v146.1c0 4.9 2.1 26 41.6 31.6 15.5 2.2 27.1 7.2 35.3 15.2 3 2.9 5.3 5.8 7 8.5 1.8-2.7 4.1-5.6 7-8.5 8.4-8 20-13 35.4-15.2 39.3-5.7 41.2-26.8 41.5-31.6V31.5" style="fill:#013369"/><path d="M119 218.4s11.5-14.1 41-18.6c34.1-5.3 32.8-21.2 32.8-22v-76.6H45v76.6c0 .8-1 16.7 32.8 22 29.7 4.5 40.9 18.6 40.9 18.6" class="s0"/><path d="M84.3 157.2V121l-4.5-2.6V109h20.8v9.4l-4.4 2.6v74l-11.1-3.3-16-47.4v31.3l5.1 3.9v9.7l-22.3-5.7v-8.2l5.1-2v-52.4l-5.2-2.6v-9.4h16.8l15.8 48.3m38.4 33.2 4.4 5.3v9.4l-22.1-8.2v-8l4.9-2v-66l-4.8-2.5v-9.5h38.4v19.2h-8.4l-2.6-7.9h-9.8v22.2h7.4l2.8-4.2h5.9v19.7H133l-2.7-4h-7.5v36.6m24.5 3.3v-9.4l5.4-4.5V121l-4.6-2.5V109h22.1v9.5l-4.4 2.5v55.5l9.5-2.6 1.9-14.5h9v24.2l-39 10.5" style="fill:#d50a0a"/><path fill-rule="evenodd" d="m48.8 85.6-6.7-5h8.2l2.7-7.8 2.7 7.8h8.2l-6.7 5 2.5 7.9-6.7-4.7-6.7 4.7zm29 0-6.7-5h8.2l2.7-7.8 2.7 7.8h8.2l-6.7 5 2.5 7.9-6.7-4.7-6.7 4.7zm-29-26-6.7-5h8.2l2.7-7.8 2.7 7.8h8.2l-6.7 5 2.4 7.9-6.6-4.7-6.7 4.7zm29 0-6.7-5h8.1l2.7-7.7 2.7 7.7h8.2l-6.7 5.1 2.5 7.8-6.7-4.6-6.6 4.6 2.4-7.8zm113.8 33.8v-.1zm-6.6-4.7-6.7 4.7 2.5-7.9-6.7-5.1h8.1l2.7-7.7 2.7 7.7h8.2l-6.7 5.1 2.5 7.8zm-29.1 0-6.7 4.7 2.5-7.9-6.7-5h8.2l2.7-7.8 2.7 7.8h8.1l-6.7 5 2.5 7.9zM185.1 62.6l-6.7 4.7 2.5-7.8-6.7-5.1h8.2l2.7-7.7 2.7 7.7h8.1l-6.7 5.1 2.5 7.8zm-29.1 0-6.7 4.7 2.5-7.9-6.7-5h8.2l2.7-7.8 2.7 7.8h8.2l-6.7 5 2.4 7.9zm-18.5-24.3c.7-.1 1.1.8 1.3 1.3 2.9 7.3 3.7 16.2 1.5 24.7-3.4 13-14.3 25-37.9 28.1-.5 0-1.1-.1-1.1-.4 1-5 3.7-14.4 9.4-24.4 1.1.6 2.2 1.3 3.2 2.1.3-.6.8-1.3 1.5-2.4-2.9-2.3-6.2-3.9-10-4.6 0 0-.7 1.4-1.3 2.5 0 0 1.5.2 3.3.8-5.1 10.9-6.8 21-7.3 25.6-1.5-2.4-2.6-7.7-3-10.6-3.7-27.4 16-43.4 37.5-43.7 1.5 0 2 .3 2 .3s-4.7 1.8-10.2 5.9c0 0-1.3-.5-2.7-.9-.8.6-1.7 1.2-2.6 1.8 2.6.6 5.8 1.9 9 4.5.7-.6 1.4-1.3 2.2-2-.7-.6-2-1.4-3.1-2 4.9-4.8 8.3-6.6 8.3-6.6m-16.3 20.5q.9-1.2 2-2.5c-3.4-2.7-7.2-4.3-10.2-4.8-.7.7-1.4 1.6-2 2.3 3.9.8 7.4 2.6 10.2 5m-3.9 5.4q.8-1.2 1.8-2.5c-2.5-2.1-5.9-4.1-10.2-4.9-.6.9-1.7 2.7-1.7 2.7 3.5.6 7.1 2.2 10.1 4.7m8.2-10.6q1-1.1 2.1-2.2c-2-1.7-5-3.7-9.4-4.7-.8.6-1.7 1.3-2.6 2.1 3.6.8 6.9 2.4 9.9 4.8" class="s0"/></g></g></svg>