<svg xmlns="http://www.w3.org/2000/svg" xml:space="preserve" viewBox="0 0 246.844 254.181"><path d="M231.344 91.021c0-21.5 9.313-36.875 15.5-48.063-6.093.286-21.899-5.384-30.146-15.688-5.041-6.298-8.307-15.12-9.026-26.906-6.203 8.406-23.391 19.094-36.359 19.094-17.552 0-36.094-6.563-47.891-19.458-11.797 12.896-30.339 19.458-47.891 19.458-12.969 0-30.156-10.688-36.359-19.094-.72 11.786-3.985 20.608-9.026 26.906C21.899 37.574 6.093 43.244 0 42.958c6.188 11.188 15.5 26.563 15.5 48.063 0 14.518-3.292 24.838-6.813 34.375-2.89 7.828-7.313 16.562-7.313 33.916 0 34.412 16.98 54.587 38.438 66.459 27.087 14.988 59.413 16.941 74 21.75 4.874 1.606 8.96 5.634 9.609 6.66.649-1.026 4.735-5.054 9.609-6.66 14.587-4.809 46.913-6.762 74-21.75 21.457-11.872 38.438-32.047 38.438-66.459 0-17.354-4.423-26.088-7.313-33.916-3.519-9.538-6.811-19.857-6.811-34.375z"/><path fill="#F29C39" d="M226.698 125.521c-3.317-8.294-6.75-15.395-6.75-28.583 0-19.917 6.083-33.917 11.916-48.417-6.458-.75-28.958-12.5-31.416-29.833-2.845 2.5-15.167 10.917-35.334 10.917-25.333 0-41.692-14.01-41.692-14.01s-16.359 14.01-41.692 14.01c-20.167 0-32.489-8.417-35.334-10.917-2.458 17.333-24.958 29.083-31.416 29.833 5.833 14.5 11.916 28.5 11.916 48.417 0 13.189-3.433 20.289-6.75 28.583-3.665 9.164-7.25 19.535-7.25 35.583 0 34.699 23.384 53.215 47.75 62.417 21.692 8.192 40.977 9.87 49.917 12.25 5.982 1.592 10.766 3.971 12.875 6.391 2.109-2.42 6.861-4.799 12.844-6.391 8.94-2.38 28.225-4.058 49.917-12.25 24.366-9.202 47.75-27.718 47.75-62.417-.001-16.048-3.586-26.419-7.251-35.583zm-103.25-98.854c5.458 3.854 23.917 11.792 41.833 11.792 13.875 0 26.75-4.938 30.958-8.146 2.417 6.333 10.792 16.708 23.834 22.458-1.125 1.917-9.354 24.333-9.354 41.063 0 19.073 6.883 33.283 11.081 47.082L55.166 32.866c6.032 2.766 15.95 5.592 26.449 5.592 17.916 0 36.375-7.937 41.833-11.791zm40.75 195.187c-16.049 3.527-34.994 5.481-40.776 10.728-5.782-5.246-24.675-7.2-40.724-10.728-4.579-1.006-8.935-2.552-12.666-3.833-24.775-8.508-48.104-24.883-48.104-58.813 0-14.378 6.963-27.202 11.154-42.993l152.324 98.501c-2.806 1.216-5.662 2.316-8.541 3.305-3.732 1.282-8.088 2.828-12.667 3.833zm30.073-11.527L35.02 107.347c.717-4.247 1.158-8.725 1.158-13.514 0-16.729-8.229-39.146-9.354-41.063 8.85-3.902 15.543-9.932 19.692-15.385l178.007 115.423c.282 2.108.447 4.235.447 6.399-.001 25.727-13.415 41.355-30.699 51.12z"/><path fill="#F29C39" d="M53.531 54.267v53.427l8.688 5.633V78.641l17.437 45.993 12.813 8.308V79.515l-9.063-5.877v35.579l-19-47.899zm52.25 87.307V88.146l9.688 6.282v19.905l20.875 13.063v-19.432l9.375 6.079v53.428l-9.375-6.079v-22.059l-20.875-12.937v21.459zm53.188 34.489v-53.428l10.625 6.889v42.451l24.375 15.805v10.978z"/></svg>