<svg xmlns="http://www.w3.org/2000/svg" version="1.2" viewBox="0 0 255 255"><style>.s1{fill:#f29c39}</style><path id="Layer" d="M235.3 91c0-21.5 9.4-36.9 15.5-48-6 .2-21.9-5.4-30.1-15.7-5-6.3-8.3-15.2-9-26.9-6.2 8.4-23.4 19.1-36.4 19.1-17.5 0-36.1-6.6-47.9-19.5-11.8 12.9-30.3 19.5-47.9 19.5C66.6 19.5 49.4 8.8 43.2.4c-.7 11.7-4 20.6-9.1 26.9C25.9 37.6 10.1 43.2 4 43c6.2 11.1 15.5 26.5 15.5 48 0 14.5-3.3 24.9-6.8 34.4-2.9 7.8-7.3 16.6-7.3 33.9 0 34.4 17 54.6 38.4 66.5 27.1 15 59.4 16.9 74 21.7 4.9 1.6 9 5.7 9.6 6.7.7-1 4.8-5.1 9.6-6.7 14.6-4.8 46.9-6.7 74-21.7 21.5-11.9 38.5-32.1 38.5-66.5 0-17.3-4.5-26.1-7.3-33.9-3.6-9.5-6.9-19.9-6.9-34.4" style="fill:#000"/><path fill-rule="evenodd" d="M237.9 161.1c0 34.7-23.3 53.2-47.7 62.4-21.7 8.2-41 9.9-49.9 12.3-6 1.6-10.8 3.9-12.9 6.4-2.1-2.5-6.9-4.8-12.8-6.4-9-2.4-28.3-4.1-50-12.3-24.3-9.2-47.7-27.7-47.7-62.4 0-16 3.6-26.4 7.2-35.6 3.4-8.3 6.8-15.4 6.8-28.6C30.9 77 24.8 63 19 48.5c6.4-.7 28.9-12.5 31.4-29.8 2.8 2.5 15.2 10.9 35.3 10.9 25.4 0 41.7-14 41.7-14s16.4 14 41.7 14c20.2 0 32.5-8.4 35.3-10.9 2.5 17.3 25 29.1 31.5 29.8-5.9 14.5-12 28.5-12 48.4 0 13.2 3.5 20.3 6.8 28.6 3.7 9.2 7.2 19.6 7.2 35.6M85.6 38.5c-10.5 0-20.4-2.9-26.4-5.6l166.6 108c-4.2-13.8-11.1-28-11.1-47.1 0-16.7 8.2-39.1 9.4-41-13.1-5.8-21.4-16.2-23.9-22.5-4.2 3.2-17 8.2-30.9 8.2-17.9 0-36.4-8-41.9-11.8-5.4 3.8-23.9 11.8-41.8 11.8M180.9 218q4.3-1.5 8.5-3.3L37.1 116.2c-4.2 15.8-11.2 28.6-11.2 43 0 33.9 23.4 50.3 48.1 58.8 3.8 1.3 8.1 2.8 12.7 3.9 16 3.5 34.9 5.4 40.7 10.7 5.8-5.3 24.7-7.2 40.8-10.7 4.6-1.1 8.9-2.6 12.7-3.9m48.1-58.8q0-3.2-.5-6.4L50.5 37.4c-4.1 5.4-10.8 11.5-19.7 15.4 1.1 1.9 9.4 24.3 9.4 41 0 4.8-.5 9.3-1.2 13.5l159.3 103c17.3-9.7 30.7-25.4 30.7-51.1" class="s1"/><path fill-rule="evenodd" d="m68.4 61.3 19 47.9V73.6l9.1 5.9v53.4l-12.8-8.3-17.5-46v34.7l-8.7-5.6V54.3zm41.4 80.2V88.1l9.7 6.3v19.9l20.9 13v-19.4l9.3 6.1v53.4l-9.3-6.1v-22l-20.9-13v21.5zM163 176v-53.4l10.6 6.9v42.4l24.4 15.8v11z" class="s1"/></svg>